<svg xmlns="http://www.w3.org/2000/svg" width="920" height="200" viewBox="0 0 920 200" font-family="'Segoe UI', 'Noto Sans KR', sans-serif">
  <defs>
    <marker id="arrowR" markerWidth="10" markerHeight="7" refX="10" refY="3.5" orient="auto">
      <polygon points="0 0, 10 3.5, 0 7" fill="#8b5cf6"/>
    </marker>
  </defs>

  <!-- Step 1 -->
  <circle cx="22" cy="50" r="11" fill="#10b981"/>
  <text x="22" y="54" text-anchor="middle" font-size="10" font-weight="bold" fill="white">1</text>
  <rect x="5" y="70" width="110" height="70" rx="35" fill="#f0fdf4" stroke="#10b981" stroke-width="2"/>
  <text x="60" y="100" text-anchor="middle" font-size="13" font-weight="bold" fill="#065f46">사용자</text>
  <text x="60" y="118" text-anchor="middle" font-size="11" fill="#6b7280">입력</text>

  <line x1="115" y1="105" x2="145" y2="105" stroke="#8b5cf6" stroke-width="2" marker-end="url(#arrowR)"/>

  <!-- Step 2 -->
  <circle cx="172" cy="50" r="11" fill="#3b82f6"/>
  <text x="172" y="54" text-anchor="middle" font-size="10" font-weight="bold" fill="white">2</text>
  <rect x="155" y="70" width="120" height="70" rx="10" fill="#eff6ff" stroke="#3b82f6" stroke-width="2"/>
  <text x="215" y="98" text-anchor="middle" font-size="12" font-weight="bold" fill="#1d4ed8">Skill</text>
  <text x="215" y="116" text-anchor="middle" font-size="12" font-weight="bold" fill="#1d4ed8">선택 / 로드</text>

  <line x1="275" y1="105" x2="305" y2="105" stroke="#8b5cf6" stroke-width="2" marker-end="url(#arrowR)"/>

  <!-- Step 3 -->
  <circle cx="322" cy="50" r="11" fill="#8b5cf6"/>
  <text x="322" y="54" text-anchor="middle" font-size="10" font-weight="bold" fill="white">3</text>
  <rect x="305" y="70" width="120" height="70" rx="10" fill="#faf5ff" stroke="#8b5cf6" stroke-width="2"/>
  <text x="365" y="100" text-anchor="middle" font-size="12" font-weight="bold" fill="#7c3aed">frontmatter</text>
  <text x="365" y="118" text-anchor="middle" font-size="12" font-weight="bold" fill="#7c3aed">파싱</text>

  <line x1="425" y1="105" x2="455" y2="105" stroke="#8b5cf6" stroke-width="2" marker-end="url(#arrowR)"/>

  <!-- Step 4 -->
  <circle cx="472" cy="50" r="11" fill="#f59e0b"/>
  <text x="472" y="54" text-anchor="middle" font-size="10" font-weight="bold" fill="white">4</text>
  <rect x="455" y="70" width="120" height="70" rx="10" fill="#fff7ed" stroke="#f59e0b" stroke-width="2"/>
  <text x="515" y="98" text-anchor="middle" font-size="12" font-weight="bold" fill="#b45309">문자열 치환</text>
  <text x="515" y="116" text-anchor="middle" font-size="10" fill="#6b7280">$ARGUMENTS 등</text>

  <line x1="575" y1="105" x2="605" y2="105" stroke="#8b5cf6" stroke-width="2" marker-end="url(#arrowR)"/>

  <!-- Step 5 -->
  <circle cx="622" cy="50" r="11" fill="#ef4444"/>
  <text x="622" y="54" text-anchor="middle" font-size="10" font-weight="bold" fill="white">5</text>
  <rect x="605" y="70" width="130" height="70" rx="10" fill="#fef2f2" stroke="#ef4444" stroke-width="2"/>
  <text x="670" y="98" text-anchor="middle" font-size="12" font-weight="bold" fill="#dc2626">동적 컨텍스트</text>
  <text x="670" y="116" text-anchor="middle" font-size="10" fill="#6b7280">!`command` 실행</text>

  <line x1="735" y1="105" x2="765" y2="105" stroke="#8b5cf6" stroke-width="2" marker-end="url(#arrowR)"/>

  <!-- Step 6 -->
  <circle cx="782" cy="50" r="11" fill="#10b981"/>
  <text x="782" y="54" text-anchor="middle" font-size="10" font-weight="bold" fill="white">6</text>
  <rect x="765" y="70" width="140" height="70" rx="35" fill="#f0fdf4" stroke="#10b981" stroke-width="2.5"/>
  <text x="835" y="100" text-anchor="middle" font-size="12" font-weight="bold" fill="#065f46">마크다운 지침</text>
  <text x="835" y="118" text-anchor="middle" font-size="11" fill="#6b7280">Claude가 실행</text>
</svg>
